<svg xmlns:xlink="http://www.w3.org/1999/xlink" xmlns="http://www.w3.org/2000/svg" viewBox="0 0 911 645.7" width="911"  height="645.7" ><g fill-rule="evenodd" clip-rule="evenodd" fill="#0379c3"><path d="M639.4 2.8c-30.3 0-61.2 6.9-89.4 19.3-45.1 19.8-76.9 58.4-111.9 91.4-34.3 32.5-77.7 42.4-123 50.6-107 19.5-236 49.9-292.4 154C-33 420.9 37 520.6 129.8 568.1c117.1 59.9 251.6 16.4 373.6 58.8 17.7 6.2 35.4 13 54 15.3 3.8.5 7.5.7 11.3.7 50.2 0 97.8-39.9 112.2-87 10.4-34.2 5.4-70.1 5.2-105.3-.2-38.8 9.4-73.5 24.5-109.1 23.7-55.7 56.4-108.8 73.9-166.9 11.2-37.1 8.4-74.7-14-107C739 22.2 690.1 2.8 639.4 2.8" opacity=".1"/><path d="M899.6 368.9c27.8-94.7-12.2-214.5-122.3-224.3-85.2-7.6-172.3 39.9-255.6 6-58.8-24-95-83.4-155.7-104.2-133.5-45.9-257 75.4-260.6 205-3.1 109.5 61 216.6 147.7 280.9 112.8 83.7 282.3 92.6 414.4 54.9 106.4-30.4 200.4-110 232.1-218.3z" opacity=".5"/><path d="M877.9 252c2.5-93.1-62.8-192.7-165.6-175-79.5 13.7-147.5 78-231.6 67.3-59.4-7.6-106.7-53.1-167.1-57.4-132.8-9.5-216.2 130.8-188.2 250C149 437.4 233.2 519.6 327.7 557.3c123 49.1 279.7 16.2 391.1-50.1 89.8-53.4 156.3-148.7 159.1-255.2z" opacity=".8"/></g></svg>